<svg width="321" height="321" viewBox="0 0 321 321" fill="none" xmlns="http://www.w3.org/2000/svg">
<path d="M160.5 30.0938C134.708 30.0938 109.495 37.7419 88.0502 52.0712C66.605 66.4004 49.8905 86.7671 40.0203 110.596C30.1502 134.424 27.5677 160.645 32.5995 185.941C37.6312 211.237 50.0512 234.474 68.2889 252.711C86.5265 270.949 109.763 283.369 135.059 288.401C160.355 293.432 186.576 290.85 210.404 280.98C234.233 271.11 254.6 254.395 268.929 232.95C283.258 211.505 290.906 186.292 290.906 160.5C290.87 125.925 277.119 92.7772 252.671 68.3292C228.223 43.8812 195.075 30.1303 160.5 30.0938ZM62.2314 210.656H113.416L134.732 267.809C119.249 264.056 104.757 257.008 92.2447 247.145C79.7329 237.282 69.4957 224.836 62.2314 210.656ZM160.5 195.609C156.532 195.609 152.653 194.433 149.354 192.228C146.055 190.024 143.483 186.89 141.965 183.224C140.446 179.559 140.049 175.525 140.823 171.633C141.597 167.741 143.508 164.166 146.314 161.361C149.119 158.555 152.694 156.644 156.586 155.87C160.478 155.096 164.512 155.493 168.178 157.012C171.844 158.53 174.977 161.101 177.181 164.401C179.386 167.7 180.562 171.579 180.562 175.547C180.562 180.868 178.449 185.971 174.686 189.733C170.924 193.496 165.821 195.609 160.5 195.609ZM186.155 267.822L207.584 210.656H258.769C251.494 224.851 241.241 237.307 228.708 247.173C216.176 257.04 201.661 264.083 186.155 267.822ZM160.5 120.375C120.084 120.424 80.9914 134.786 50.1562 160.914V160.5C50.1562 131.235 61.7817 103.169 82.4752 82.4752C103.169 61.7817 131.235 50.1562 160.5 50.1562C189.765 50.1562 217.831 61.7817 238.525 82.4752C259.218 103.169 270.844 131.235 270.844 160.5V160.914C240.009 134.786 200.916 120.424 160.5 120.375Z" fill="#4A494B"/>
</svg>
